<svg xmlns="http://www.w3.org/2000/svg" viewBox="0 0 24 24" width="24" height="24" aria-hidden="true">
  <title>Google</title>
  <circle cx="12" cy="12" r="10" fill="#ffffff" />

  <!-- Four-color ring (abstracted) -->
  <path d="M12 2a10 10 0 0 1 6.93 2.79l-2.64 2.64A6.2 6.2 0 0 0 12 6.4Z" fill="#4285F4"/>
  <path d="M18.93 4.79A10 10 0 0 1 22 12c0 .7-.07 1.38-.2 2.04h-3.74A6.2 6.2 0 0 0 18.6 12c0-1.35-.45-2.59-1.21-3.57Z" fill="#34A853"/>
  <path d="M21.8 14.04A10 10 0 0 1 12 22a10 10 0 0 1-7.07-2.93l2.67-2.67A6.2 6.2 0 0 0 12 18.6c2.2 0 4.12-1.15 5.22-2.88Z" fill="#FBBC05"/>
  <path d="M4.93 19.07A10 10 0 0 1 2 12a10 10 0 0 1 3.07-7.21l2.67 2.67A6.2 6.2 0 0 0 5.4 12c0 1.78.75 3.38 1.95 4.52Z" fill="#EA4335"/>

  <!-- Simple "G" glyph in dark gray, not a direct logo trace -->
  <path d="M12 7.1c1.25 0 2.18.48 2.8 1.08l-1.1 1.1c-.35-.35-.9-.7-1.7-.7-1.55 0-2.8 1.28-2.8 2.9 0 1.65 1.25 2.9 2.8 2.9 1.35 0 2.2-.75 2.45-1.9H12.2v-1.6h4.3c.06.28.1.6.1.96 0 2.7-1.78 4.54-4.6 4.54A4.7 4.7 0 0 1 7.2 12c0-2.6 2.1-4.9 4.8-4.9Z" fill="#3c4043"/>
</svg>
